<svg width="800" height="787" viewBox="0 0 800 787" fill="none" xmlns="http://www.w3.org/2000/svg">
<path d="M160 203.333V708.333C160 753.333 125 786.667 80 786.667C35 786.667 0 751.667 0 708.333V20C0 8.95428 8.9543 0 20 0H780C791.046 0 800 8.95431 800 20V445C800 488.333 763.333 523.333 720 523.333C675 523.333 638.333 488.333 638.333 445V405C638.333 360 603.333 326.667 558.333 326.667C521.166 326.667 488.903 352.409 480.471 387.105C480.139 388.47 480 389.875 480 391.279V516.667C480 561.667 443.333 595 400 595C355 595 320 560 320 516.667V208.333C320 165 283.333 130 240 130C219.889 129.93 200.489 137.437 185.664 151.027C170.839 164.617 161.676 183.292 160 203.333Z" fill="#F05033"/>
<path d="M575 136.2C576.333 137.533 577 138.933 577 140.4C577 141.867 576.067 143.533 574.2 145.4L528 196.6C527.067 197.533 525.867 198 524.4 198C523.067 198 520.933 197.4 518 196.2C515.2 194.867 512.867 193 511 190.6C509.267 188.067 508.4 186.267 508.4 185.2C508.4 184 508.8 183 509.6 182.2L550.6 140L510.2 95.2C509.4 94.4 509 93.4667 509 92.4C509 91.2 509.867 89.4 511.6 87C513.467 84.6 515.8 82.8 518.6 81.6C521.533 80.2667 523.667 79.6 525 79.6C526.467 79.6 527.667 80 528.6 80.8L575 136.2ZM698.439 237H603.439C601.039 237 599.306 235.067 598.239 231.2C597.706 229.2 597.439 227.267 597.439 225.4C597.439 223.533 597.706 221.6 598.239 219.6C599.306 215.733 601.039 213.8 603.439 213.8H698.439C700.839 213.8 702.572 215.733 703.639 219.6C704.172 221.6 704.439 223.533 704.439 225.4C704.439 227.267 704.172 229.2 703.639 231.2C702.572 235.067 700.839 237 698.439 237Z" fill="white"/>
</svg>
