<?xml version="1.0" standalone="no"?>
<!DOCTYPE svg PUBLIC "-//W3C//DTD SVG 20010904//EN"
 "http://www.w3.org/TR/2001/REC-SVG-20010904/DTD/svg10.dtd">
<!-- viewBox="200 146 670 670" -->
<svg version="1.0" xmlns="http://www.w3.org/2000/svg"
 width="1024.000000pt" height="1024.000000pt" viewBox="200 146 670 670"
 preserveAspectRatio="xMidYMid meet">

<g transform="translate(0.000000,1024.000000) scale(0.100000,-0.100000)"
fill="#F05033" stroke="none">
<path d="M5914 8701 c-141 -23 -261 -86 -356 -190 -101 -109 -146 -209 -155
-351 -10 -161 48 -310 167 -431 111 -112 235 -166 400 -176 80 -4 105 -2 158
16 l63 22 59 -53 c32 -29 173 -172 313 -318 140 -146 281 -290 313 -320 33
-30 88 -82 123 -114 l63 -59 -16 -63 c-18 -71 -21 -217 -5 -284 30 -131 143
-285 269 -367 l60 -38 1 -345 c0 -190 2 -354 4 -366 3 -16 -10 -30 -61 -63
-144 -95 -246 -216 -285 -340 -27 -87 -29 -241 -5 -326 45 -155 160 -301 285
-364 124 -63 271 -85 393 -60 29 6 89 28 134 49 64 31 95 54 155 117 129 135
188 284 175 443 -19 235 -136 405 -342 496 l-54 24 6 352 c4 194 9 356 13 360
3 3 37 22 74 42 92 48 131 80 181 145 90 117 126 221 126 366 0 170 -50 296
-164 410 -119 119 -234 165 -411 164 -80 0 -112 -5 -160 -23 l-60 -24 -175
172 c-96 95 -295 289 -443 433 l-267 261 25 75 c61 183 12 409 -120 554 -118
130 -312 200 -481 174z"/>
<path d="M3830 7150 c-757 -6 -766 -6 -845 -28 -291 -83 -516 -303 -602 -589
-17 -54 -18 -157 -21 -1453 -2 -1245 -1 -1404 13 -1474 35 -172 101 -281 267
-442 93 -90 130 -118 205 -157 181 -94 103 -88 1285 -87 710 1 1050 -3 1078
-10 23 -6 218 -129 462 -292 233 -154 448 -293 478 -307 47 -22 69 -26 145
-26 82 0 97 3 156 32 82 41 150 111 192 201 l32 67 3 1855 c2 1286 -1 1880 -8
1938 -33 255 -181 483 -416 640 -78 52 -150 84 -256 113 -83 23 -85 23 -743
24 -363 1 -1004 -2 -1425 -5z m2098 -428 c118 -38 224 -128 272 -229 51 -109
50 -49 50 -1939 0 -2027 12 -1822 -101 -1755 -35 20 -190 121 -344 222 -426
281 -420 278 -506 289 -43 5 -504 10 -1099 10 -1116 0 -1078 -2 -1193 56 -109
56 -208 190 -228 312 -5 33 -9 598 -9 1347 0 1419 -2 1357 62 1476 40 77 121
152 205 192 l68 32 760 5 c418 3 1039 4 1380 4 597 -1 622 -2 683 -22z"/>
<path d="M3739 5867 c-81 -23 -133 -71 -176 -162 -25 -54 -28 -70 -28 -171 0
-103 2 -114 30 -169 25 -49 40 -65 90 -95 52 -30 70 -35 138 -39 98 -4 153 15
218 76 71 66 93 126 94 248 0 117 -21 178 -83 238 -71 69 -190 100 -283 74z"/>
<path d="M5144 5862 c-69 -24 -99 -45 -134 -93 -46 -64 -64 -131 -64 -239 0
-150 42 -224 156 -275 54 -24 70 -27 142 -23 98 5 146 28 204 93 57 64 77 129
77 240 -1 101 -19 154 -74 218 -69 78 -208 114 -307 79z"/>
<path d="M3783 4700 c-72 -16 -132 -83 -141 -155 -6 -58 28 -130 102 -211 214
-237 574 -367 886 -321 252 37 465 142 633 313 98 99 131 176 107 249 -20 59
-65 103 -126 121 -78 22 -110 10 -202 -78 -181 -172 -359 -246 -572 -236 -187
10 -339 78 -485 218 -103 100 -135 115 -202 100z"/>
</g>
</svg>
